#N canvas 0 19 1680 1001 12;
#X obj 107 140 hsl 128 15 0 127 0 0 \$0-start \$0-startrestore start
2 8 0 10 #fcfcfc #7c7c7c #000000 0 1;
#X obj 340 119 savestate;
#X obj 417 90 f;
#X obj 340 190 unpack f f f f f f, f 22;
#X obj 435 7 r \$0-min;
#X obj 444 34 r \$0-max;
#X obj 471 57 r \$0-start;
#X obj 30 7 inlet~ gate;
#X obj 199 40 threshold~ 0.66 0 0.33 0;
#X obj 417 156 pack f f f, f 18;
#X obj 340 214 s \$0-minrestore;
#X obj 371 237 s \$0-maxcvrestore;
#X obj 404 262 s \$0-startrestore;
#X obj 241 140 tgl 15 0 empty empty empty 17 7 0 10 #fcfcfc #000000
#000000 0 1;
#X obj 103 230 outlet~;
#X obj 187 256 outlet~;
#X obj 188 226 expr~ $v1 < 0.5;
#X obj 104 170 / 127;
#X obj 104 195 sig~;
#X obj 8 263 outlet~;
#X msg 241 91 set 1;
#X msg 281 91 set 0;
#X obj 241 160 sig~;
#X obj 30 196 expr~ $v1 > 0.5;
#X obj 30 221 outlet~;
#X connect 0 0 17 0;
#X connect 1 0 3 0;
#X connect 1 1 2 0;
#X connect 2 0 9 0;
#X connect 3 0 10 0;
#X connect 3 1 11 0;
#X connect 3 2 12 0;
#X connect 4 0 2 1;
#X connect 5 0 9 1;
#X connect 6 0 9 2;
#X connect 7 0 8 0;
#X connect 7 0 16 0;
#X connect 7 0 23 0;
#X connect 8 0 20 0;
#X connect 8 1 21 0;
#X connect 9 0 1 0;
#X connect 13 0 22 0;
#X connect 16 0 15 0;
#X connect 17 0 18 0;
#X connect 18 0 14 0;
#X connect 18 0 19 0;
#X connect 20 0 13 0;
#X connect 21 0 13 0;
#X connect 22 0 16 0;
#X connect 22 0 23 0;
#X connect 23 0 24 0;
#X coords 0 -1 1 1 160 40 1 100 120;
