#N canvas 0 19 734 444 12;
#X obj 99 22 inlet;
#X obj 139 134 unpack f f f f;
#X obj 380 294 outlet~;
#X msg 99 134 1;
#X msg 16 166 0;
#X obj 14 249 t f f f;
#X obj 152 23 == 0;
#X obj 99 52 spigot 1;
#X obj 37 277 array set \$2-busygrains \$1;
#X obj 381 264 *~;
#X obj 400 147 / 2;
#X obj 400 227 vline~;
#X obj 99 79 t b a;
#X obj 16 141 delay;
#X obj 16 112 + 10;
#X msg 400 198 0 \, 0 2 \, \$2 \$1 2 \, 0 \$1 \$1 \, 0 2 \$3;
#X obj 467 148 + 2;
#X obj 400 173 pack f f f;
#X obj 400 122 t f f;
#X obj 382 53 inlet~;
#X obj 14 304 outlet;
#X obj 234 166 s \$3-pitch;
#X obj 202 190 s \$3-amp;
#X obj 170 217 s \$3-dur;
#X obj 139 245 s \$3-delay;
#X obj 401 96 r \$3-dur;
#X obj 465 115 r \$3-amp;
#X obj 16 83 r \$3-dur;
#X connect 0 0 7 0;
#X connect 1 0 24 0;
#X connect 1 1 23 0;
#X connect 1 2 22 0;
#X connect 1 3 21 0;
#X connect 3 0 5 0;
#X connect 4 0 5 0;
#X connect 5 0 20 0;
#X connect 5 1 8 0;
#X connect 5 2 6 0;
#X connect 6 0 7 1;
#X connect 7 0 12 0;
#X connect 9 0 2 0;
#X connect 10 0 17 0;
#X connect 11 0 9 1;
#X connect 12 0 3 0;
#X connect 12 1 1 0;
#X connect 13 0 4 0;
#X connect 14 0 13 0;
#X connect 15 0 11 0;
#X connect 16 0 17 2;
#X connect 17 0 15 0;
#X connect 18 0 10 0;
#X connect 18 1 16 0;
#X connect 19 0 9 0;
#X connect 25 0 18 0;
#X connect 26 0 17 1;
#X connect 27 0 14 0;
