#N canvas 846 162 676 670 12;
#X obj 36 616 outlet;
#X obj 36 20 loadbang;
#X obj 36 122 delay;
#X obj 36 152 t b b;
#X obj 36 65 random-range 10000 1 1;
#X obj 36 177 t b b b b, f 45;
#X obj 36 532 pack f f f f, f 45;
#X obj 36 271 random-range 10000 0 0;
#X obj 244 446 random-range 10000 0 0;
#X obj 348 503 random-range 10000 0 0;
#X obj 49 46 bng 15 250 50 0 empty empty empty 17 7 0 10 #fcfcfc #000000
#000000;
#X obj 140 327 random-range 10000 1 1;
#X obj 140 356 expr pow(2 \, $f1/127 * ln(20000)/ln(2));
#X obj 36 94 expr pow(2 \, $f1/127 * ln(1000)/ln(2));
#X obj 36 301 / 127;
#X obj 36 326 * 30000;
#X obj 244 475 / 127;
#N canvas 218 142 1010 742 allocator 0;
#X obj 24 15 inlet;
#X obj 24 309 list store, f 29;
#X obj 24 139 until;
#X obj 24 167 f, f 6;
#X obj 84 167 + 1;
#X msg 63 104 0;
#X obj 24 195 t f f, f 23;
#X obj 24 335 list prepend, f 23;
#X obj 24 255 sel 0;
#X obj 24 361 outlet;
#N canvas 0 23 450 278 (subpatch) 0;
#X array \$1-busygrains 50 float 3;
#A 0 1 0 0 0 0 0 0 0 0 0 0 0 0 0 0 0 0 0 0 0 0 0 0 0 0 0 0 0 0 0 0
0 0 0 0 0 0 0 0 0 0 0 0 0 0 0 0 0 0 0;
#X coords 0 1 50 -1 200 140 1 0 0;
#X restore 434 187 graph;
#X obj 432 57 loadbang;
#X obj 24 44 t b b a, f 29;
#X msg 432 116 \; \$2-busygrains const 0;
#X obj 24 283 t b b;
#X obj 334 225 t a;
#X obj 510 60 bng 15 250 50 0 empty empty empty 17 7 0 10 #fcfcfc #000000
#000000;
#X obj 432 87 pack symbol \$1;
#X obj 24 226 array get \$1-busygrains 0 1;
#X obj 24 74 array size \$1-busygrains;
#X connect 0 0 12 0;
#X connect 1 0 7 0;
#X connect 2 0 3 0;
#X connect 3 0 4 0;
#X connect 3 0 6 0;
#X connect 4 0 3 1;
#X connect 5 0 3 1;
#X connect 6 0 18 0;
#X connect 6 1 7 1;
#X connect 7 0 9 0;
#X connect 8 0 14 0;
#X connect 11 0 17 0;
#X connect 12 0 19 0;
#X connect 12 1 5 0;
#X connect 12 2 1 1;
#X connect 14 0 1 0;
#X connect 14 1 15 0;
#X connect 15 0 2 1;
#X connect 16 0 17 0;
#X connect 17 0 13 0;
#X connect 18 0 8 0;
#X connect 19 0 2 0;
#X restore 36 568 pd allocator;
#X obj 120 19 r \$1-iot-min;
#X obj 227 19 r \$1-iot-max;
#X obj 111 214 r \$1-delay-min;
#X obj 187 242 r \$1-delay-max;
#X obj 215 272 r \$1-duration-min;
#X obj 291 299 r \$1-duration-max;
#X obj 319 390 r \$1-amplitude-min;
#X obj 395 417 r \$1-amplitude-max;
#X obj 423 447 r \$1-pitch-min;
#X obj 499 473 r \$1-pitch-max;
#X obj 100 143 bng 15 250 50 0 empty empty empty 17 7 0 10 #fcfcfc
#000000 #000000;
#X obj 36 429 + 1;
#X connect 1 0 4 0;
#X connect 2 0 3 0;
#X connect 3 0 5 0;
#X connect 3 1 4 0;
#X connect 3 1 28 0;
#X connect 4 0 13 0;
#X connect 5 0 7 0;
#X connect 5 1 11 0;
#X connect 5 2 8 0;
#X connect 5 3 9 0;
#X connect 6 0 17 0;
#X connect 7 0 14 0;
#X connect 8 0 16 0;
#X connect 9 0 6 3;
#X connect 10 0 4 0;
#X connect 11 0 12 0;
#X connect 12 0 6 1;
#X connect 13 0 2 0;
#X connect 14 0 15 0;
#X connect 15 0 29 0;
#X connect 16 0 6 2;
#X connect 17 0 0 0;
#X connect 18 0 4 1;
#X connect 19 0 4 2;
#X connect 20 0 7 1;
#X connect 21 0 7 2;
#X connect 22 0 11 1;
#X connect 23 0 11 2;
#X connect 24 0 8 1;
#X connect 25 0 8 2;
#X connect 26 0 9 1;
#X connect 27 0 9 2;
#X connect 29 0 6 0;
