#N canvas 165 182 414 602 12;
#X obj 20 60 hsl 128 15 0 127 0 0 \$0-delay-min \$0-delay-min-set delay_min
137 8 0 10 #fcfcfc #000000 #000000 0 1;
#X obj 20 80 hsl 128 15 0 127 0 0 \$0-delay-max \$0-delay-max-set delay_max
137 8 0 10 #fcfcfc #000000 #000000 0 1;
#X obj 20 124 hsl 128 15 0 127 0 0 \$0-duration-max \$0-duration-max-set
duration_max 137 8 0 10 #fcfcfc #000000 #000000 0 1;
#X obj 20 102 hsl 128 15 0 127 0 0 \$0-duration-min \$0-duration-min-set
duration_min 137 8 0 10 #fcfcfc #000000 #000000 0 1;
#X floatatom 17 189 5 -64 24 1 pitch_min \$0-pitch-min-set \$0-pitch-min
10;
#X floatatom 118 189 5 -64 24 1 pitch_max \$0-pitch-max-set \$0-pitch-max
10;
#X obj 18 347 inlet~;
#X obj 20 18 hsl 128 15 0 127 0 0 \$0-iot-min \$0-iot-min-set iot_min
137 8 0 10 #fcfcfc #000000 #000000 0 1;
#X obj 20 38 hsl 128 15 0 127 0 0 \$0-iot-max \$0-iot-max-set iot_max
137 8 0 10 #fcfcfc #000000 #000000 0 1;
#X obj 20 167 hsl 128 15 0 127 0 0 \$0-amplitude-max \$0-amplitude-max-set
amplitude_max 137 8 0 10 #fcfcfc #000000 #000000 0 1;
#X obj 20 145 hsl 128 15 0 127 0 0 \$0-amplitude-min \$0-amplitude-min-set
amplitude_min 137 8 0 10 #fcfcfc #000000 #000000 0 1;
#X obj 20 212 hsl 128 15 0 127 0 0 \$0-feedback \$0-feedback-set feedback
137 8 0 10 #fcfcfc #000000 #000000 0 1;
#X obj 17 234 tgl 15 0 \$0-freeze empty freeze 17 7 0 10 #fcfcfc #000000
#000000 0 1;
#X floatatom 118 232 5 -64 24 1 max-grains \$0-max-grains-set \$0-max-grains
10;
#N canvas 0 19 450 300 delay-writer 0;
#X obj 37 37 inlet~;
#X obj 38 182 outlet~;
#X obj 179 9 r \$0-freeze;
#X obj 178 63 == 0;
#X obj 179 34 t f f;
#X obj 64 84 *~ 1;
#X obj 196 87 *~ 0;
#X obj 238 90 tgl 15 0 empty empty empty 17 7 0 10 #fcfcfc #000000
#000000 0 1;
#X obj 137 63 tgl 15 0 empty empty empty 17 7 0 10 #fcfcfc #000000
#000000 0 1;
#X obj 37 117 delwrite~ \$0-granular-delay 120000;
#X obj 235 61 delread~ \$0-granular-delay 30000;
#X connect 0 0 5 0;
#X connect 2 0 4 0;
#X connect 3 0 5 1;
#X connect 3 0 8 0;
#X connect 4 0 3 0;
#X connect 4 1 6 1;
#X connect 4 1 7 0;
#X connect 5 0 9 0;
#X connect 6 0 9 0;
#X connect 10 0 6 0;
#X restore 18 377 pd delay-writer;
#X obj 146 474 dac~;
#X obj 88 336 *~ 0.1;
#X obj 79 289 osc~ 440;
#X obj 147 434 clone delay-grain~ 64 \$0;
#X obj 147 403 granular-generator \$0;
#X listbox 163 376 38 0 0 0 - - - 0;
#X connect 6 0 14 0;
#X connect 16 0 14 0;
#X connect 17 0 16 0;
#X connect 18 0 15 0;
#X connect 18 0 15 1;
#X connect 19 0 20 0;
#X connect 19 0 18 0;
