#N canvas 526 110 450 300 12;
#X obj 76 100 random \$1;
#X obj 76 125 / \$1;
#X obj 76 40 inlet;
#X obj 186 65 inlet;
#X obj 242 65 inlet;
#X obj 186 120 pack f f, f 13;
#X obj 242 90 t b f;
#X obj 186 155 min;
#X obj 231 159 -;
#X obj 231 184 abs;
#X obj 76 150 *;
#X obj 76 175 +;
#X obj 76 200 outlet;
#X obj 304 13 loadbang;
#X obj 304 38 t b b;
#X obj 304 63 \$2;
#X obj 339 64 \$3;
#X connect 0 0 1 0;
#X connect 1 0 10 0;
#X connect 2 0 0 0;
#X connect 3 0 5 0;
#X connect 4 0 6 0;
#X connect 5 0 7 0;
#X connect 5 0 8 0;
#X connect 6 0 5 0;
#X connect 6 1 5 1;
#X connect 7 0 11 1;
#X connect 8 0 9 0;
#X connect 9 0 10 1;
#X connect 10 0 11 0;
#X connect 11 0 12 0;
#X connect 13 0 14 0;
#X connect 14 0 15 0;
#X connect 14 1 16 0;
#X connect 15 0 5 0;
#X connect 16 0 5 1;
