#N canvas 612 501 345 224 12;
#X obj 19 17 inlet;
#N canvas 614 528 512 460 pitch-shift 1;
#X obj 332 13 r \$0-pitch;
#X obj 23 22 r \$0-delay;
#X obj 112 348 line~;
#X obj 332 112 expr pow(2 \, $f1/12);
#X obj 105 22 r \$0-dur;
#X obj 112 387 outlet~;
#X obj 344 192 array size \$2-sample;
#X obj 23 46 t f f;
#X obj 105 47 t f f b, f 20;
#X obj 112 141 *;
#X obj 24 232 expr if ($f2 > $f3 \, $f1 - ($f2-$f3) \, $f1);
#X obj 112 98 expr $f1/1000*48000;
#X msg 112 318 0 \, \$1 \$2;
#X obj 112 292 pack f f;
#X obj 238 270 outlet;
#X obj 403 62 r \$2-quantize;
#X obj 331 87 quantizer;
#X connect 0 0 16 0;
#X connect 1 0 7 0;
#X connect 2 0 5 0;
#X connect 3 0 9 1;
#X connect 4 0 8 0;
#X connect 6 0 10 2;
#X connect 7 0 10 0;
#X connect 8 0 11 0;
#X connect 8 1 13 1;
#X connect 8 2 6 0;
#X connect 9 0 13 0;
#X connect 10 0 14 0;
#X connect 11 0 9 0;
#X connect 12 0 2 0;
#X connect 13 0 12 0;
#X connect 15 0 16 1;
#X connect 16 0 3 0;
#X restore 141 26 pd pitch-shift;
#X obj 141 127 outlet~;
#X obj 19 125 switch~;
#X obj 19 89 grain-skeleton~ \$1 \$2 \$0;
#X obj 142 56 tabread4~ \$2-sample;
#X connect 0 0 4 0;
#X connect 1 0 5 0;
#X connect 1 1 5 1;
#X connect 4 0 3 0;
#X connect 4 1 2 0;
#X connect 5 0 4 1;
