#N canvas 420 418 936 548 12;
#X obj 99 42 inlet;
#X obj 222 81 delread4~ \$2-granular-delay;
#N canvas 46 128 512 345 pitch-shift 0;
#X obj 332 41 r \$0-pitch;
#X obj 23 185 pack f f f, f 19;
#X obj 23 22 r \$0-delay;
#X msg 23 210 \$1 \, \$2 \$3;
#X obj 23 235 line~;
#X obj 23 46 t f f, f 6;
#X obj 332 126 expr pow(2 \, $f1/12);
#X obj 105 22 r \$0-dur;
#X obj 23 260 outlet~;
#N canvas 897 117 781 695 quantize 0;
#X obj 128 27 r \$2-quantize;
#X obj 128 81 list length;
#X obj 128 54 t a a, f 17;
#X obj 107 292 list store;
#X obj 128 108 sel 1, f 6;
#X obj 36 236 spigot 1;
#X obj 107 236 spigot 0;
#X obj 128 167 t f f;
#X msg 167 137 1;
#X obj 89 201 == 0;
#X msg 128 136 0;
#X obj 107 320 list split 1;
#X obj 147 345 t a;
#X obj 107 401 -;
#X obj 107 426 abs;
#X obj 107 451 min;
#X msg 319 431 9999;
#X obj 107 376 t f f;
#X obj 107 501 f, f 5;
#X obj 107 476 t b;
#X obj 213 381 % 12;
#X obj 107 264 t b f b f, f 46;
#X obj 426 481 / 12;
#X obj 426 506 expr round($f1) * 12;
#X obj 36 190 inlet;
#X obj 36 581 outlet;
#X obj 107 526 +;
#X connect 0 0 2 0;
#X connect 1 0 4 0;
#X connect 2 0 1 0;
#X connect 2 1 3 1;
#X connect 3 0 11 0;
#X connect 4 0 10 0;
#X connect 4 1 8 0;
#X connect 5 0 25 0;
#X connect 6 0 21 0;
#X connect 7 0 9 0;
#X connect 7 1 6 1;
#X connect 8 0 7 0;
#X connect 9 0 5 1;
#X connect 10 0 7 0;
#X connect 11 0 17 0;
#X connect 11 1 12 0;
#X connect 12 0 11 0;
#X connect 13 0 14 0;
#X connect 14 0 15 0;
#X connect 15 0 19 0;
#X connect 16 0 15 1;
#X connect 17 0 13 0;
#X connect 17 1 18 1;
#X connect 18 0 26 0;
#X connect 19 0 18 0;
#X connect 20 0 13 1;
#X connect 21 0 3 0;
#X connect 21 1 20 0;
#X connect 21 2 16 0;
#X connect 21 3 22 0;
#X connect 22 0 23 0;
#X connect 23 0 26 1;
#X connect 24 0 5 0;
#X connect 24 0 6 0;
#X connect 26 0 25 0;
#X restore 332 81 pd quantize;
#X obj 153 155 expr $f1 - ($f2*$f3 - $f2);
#X obj 105 47 t f f, f 20;
#X connect 0 0 9 0;
#X connect 1 0 3 0;
#X connect 2 0 5 0;
#X connect 3 0 4 0;
#X connect 4 0 8 0;
#X connect 5 0 1 0;
#X connect 5 1 10 0;
#X connect 6 0 10 2;
#X connect 7 0 11 0;
#X connect 9 0 6 0;
#X connect 10 0 1 2;
#X connect 11 0 1 1;
#X connect 11 1 10 1;
#X restore 221 51 pd pitch-shift;
#X obj 99 114 grain-skeleton~ \$1;
#X obj 221 152 outlet~;
#X obj 99 150 switch~;
#X connect 0 0 3 0;
#X connect 1 0 3 1;
#X connect 2 0 1 0;
#X connect 3 0 5 0;
#X connect 3 1 4 0;
