#N canvas 40 285 819 422 12;
#X obj 14 213 rfft~;
#X obj 260 145 block~ \$1;
#N canvas 0 50 450 250 (subpatch) 0;
#X array \$0-scope 100 float 4;
#X coords 0 1 99 -1 400 90 2 0 0;
#X restore 10 28 graph;
#X obj 312 181 loadbang;
#X obj 312 204 f \$1;
#X obj 326 300 array size \$0-scope;
#X obj 13 142 inlet~;
#X obj 312 228 / 2;
#X obj 15 276 log~ 10;
#X obj 16 298 *~ 10;
#X obj 16 363 tabwrite~ \$0-scope;
#X obj 146 276 loadbang;
#X obj 392 10 tgl 18 0 empty empty empty 0 -9 0 12 #fcfcfc #000000 #000000 0 1;
#X msg 637 97 0;
#X obj 531 146 osc~;
#X obj 531 98 samplerate~;
#X obj 524 32 loadbang;
#X obj 531 122 / \$1;
#X obj 531 232 +~ 0.35875;
#X obj 531 190 *~ -0.48829;
#X obj 621 191 *~ 0.14128;
#X obj 698 191 *~ 0.01168;
#X obj 15 250 expr~ sqrt($v1*$v1+$v2*$v2)/$f3;
#X obj 599 44 bng 18 250 50 0 empty empty empty 0 -9 0 12 #fcfcfc #000000 #000000;
#X obj 523 260 tabwrite~ \$0w;
#X obj 523 66 t b b b;
#X obj 523 285 array define \$0w \$1;
#X obj 13 178 *~;
#X obj 85 142 tabreceive~ \$0w;
#X obj 146 327 metro 30;
#X obj 363 206 f \$2;
#X obj 16 322 expr~ $v1/32+1;
#X connect 0 0 22 0;
#X connect 0 1 22 1;
#X connect 3 0 4 0;
#X connect 3 0 30 0;
#X connect 4 0 7 0;
#X connect 6 0 27 0;
#X connect 7 0 22 2;
#X connect 8 0 9 0;
#X connect 9 0 31 0;
#X connect 11 0 12 0;
#X connect 12 0 29 0;
#X connect 13 0 14 1;
#X connect 14 0 19 0;
#X connect 14 0 20 0;
#X connect 14 0 21 0;
#X connect 15 0 17 0;
#X connect 16 0 25 0;
#X connect 17 0 14 0;
#X connect 18 0 24 0;
#X connect 19 0 18 0;
#X connect 20 0 18 0;
#X connect 21 0 18 0;
#X connect 22 0 8 0;
#X connect 23 0 25 0;
#X connect 25 0 24 0;
#X connect 25 1 15 0;
#X connect 25 2 13 0;
#X connect 27 0 0 0;
#X connect 28 0 27 1;
#X connect 29 0 10 0;
#X connect 30 0 5 0;
#X connect 31 0 10 0;
#X coords 0 -1 1 1 400 108 1 10 10;
