#N canvas 679 19 579 515 12;
#X obj 180 18 inlet~ amp;
#X obj 104 268 *~, f 11;
#X obj 105 355 outlet~;
#X obj 99 425 hsl 128 15 0 127 0 0 \$0-amp \$0-amprestore amp -24 8
0 10 #fcfcfc #000000 #000000 0 1;
#X obj 99 448 hsl 128 15 0 127 0 0 \$0-ampcv \$0-ampcvrestore amp-cv
-42 8 0 10 #fcfcfc #ff8300 #ff8300 0 1;
#X obj 217 161 r \$0-amp;
#X obj 217 97 r \$0-ampcv;
#X obj 179 143 *~;
#X obj 179 206 +~;
#X obj 217 123 / 127;
#X obj 217 186 / 64;
#X text 158 416 |;
#X obj 433 67 r \$0-amp;
#X obj 468 96 r \$0-ampcv;
#X obj 330 178 savestate;
#X obj 397 277 s \$0-ampcvrestore;
#X obj 330 304 s \$0-amprestore;
#X obj 415 96 f;
#X text 50 401 in;
#X text 211 401 amp;
#X obj 103 17 inlet~ in;
#X obj 330 247 unpack f f;
#X obj 415 175 pack f f;
#X connect 0 0 7 0;
#X connect 1 0 2 0;
#X connect 5 0 10 0;
#X connect 6 0 9 0;
#X connect 7 0 8 0;
#X connect 8 0 1 1;
#X connect 9 0 7 1;
#X connect 10 0 8 1;
#X connect 12 0 17 1;
#X connect 13 0 22 1;
#X connect 14 0 21 0;
#X connect 14 1 17 0;
#X connect 17 0 22 0;
#X connect 20 0 1 0;
#X connect 21 0 16 0;
#X connect 21 1 15 0;
#X connect 22 0 14 0;
#X coords 0 -1 1 1 186 70 2 50 400;
